<svg xmlns="http://www.w3.org/2000/svg" xmlns:xlink="http://www.w3.org/1999/xlink" width="14" height="14" version="1.1" viewBox="0 0 14 14"><title>Like</title><desc>Created with Sketch.</desc><defs><linearGradient id="linearGradient-1" x1="50%" x2="50%" y1="100%" y2="0%"><stop offset="0%" stop-color="#EC5858"/><stop offset="100%" stop-color="#FF9898"/></linearGradient></defs><g id="Symbols" fill="none" fill-rule="evenodd" stroke="none" stroke-width="1"><g id="Other/Rounded-14px/Like"><g id="Like"><rect id="Base" width="14" height="14" x="0" y="0" fill="url(#linearGradient-1)" rx="7"/><path id="Icon" fill="#FFF" d="M4,9 C4,9.70866667 4.22375,10 5,10 L5,6 C4.22375,6 4,6.30533333 4,7 L4,9 Z M10,9 C10,9.875 9.08569482,10 9,10 L6,10 L6,6 L6,5 C6,4 6.9350771,4 7.03125,4 C8,4 8,5.15625 8,5 L8,6 C8,6 9,6 9,6 C10,6 10,7 10,7 L10,9 Z"/></g></g></g></svg>